#!OML:ASF F:\VICON\USERDATA\INSTALL\rory3\rory3.ASF
:FULLY-SPECIFIED
:DEGREES
69
root -0.5190262029475856 18.036536795528463 37.10660201946343 -0.5116978425182059 2.391873252072049 -4.289905232980605
lfemur -18.32672412202171 1.1296316971247988 -14.881315825239543
ltibia 92.76386331361553
lfoot 10.647863259084424 -10.447742927231593
ltoes -2.9822106380894975
rfemur -15.353749316076655 5.726750241187576 32.35695871284495
rtibia 28.090886462809195
rfoot -7.726092637426582 -5.2342118561004085
rtoes 11.172203166746932
lowerback 12.813899510237556 -0.664819029300078 2.63611533232598
upperback 0.03826812051093703 -0.41124648991450363 3.0246507027337195
thorax -7.689217763218936 -0.19048075657627572 1.7795426486990154
lowerneck -16.31953018811313 -2.9185038952898754 -3.28105836129425
upperneck 18.71675466020463 -3.362291071516594 2.667044852642454
head 8.594971524977453 -1.5738445087311876 1.0822596453743651
lclavicle -1.673438091852088e-15 -3.590660210818579e-15
lhumerus -39.19687652707406 -6.294673941989004 90.66931906528836
lradius 70.79746411957234
lwrist 16.458036676147277
lhand -29.227508638453163 11.907951176231657
lfingers 7.125019999999999
lthumb -3.039427932400496 41.47966807283365
rclavicle -1.6745754285476046e-15 -3.591436091061314e-15
rhumerus -39.965429641283635 -7.784177680253769 -83.75150191678361
rradius 59.51319015583152
rwrist 0.876265374082779
rhand -17.47710740050105 30.081959737388978
rfingers 7.125019999999999
rthumb 8.578220352515892 0.09416279018325929
70
root -0.5289434238321911 17.990112984602963 37.821844244746465 -0.2106901930676237 1.5585127393009497 -4.734037599329634
lfemur -24.311121424490633 2.1490237262727607 -14.271835662904415
ltibia 92.08676640915482
lfoot 4.316118802429762 -7.6343442044769425
ltoes -5.8366136017285
rfemur -11.836414070000487 6.12072174458606 33.66845522889479
rtibia 26.876186386126314
rfoot -11.171832461395745 -5.822115633509493
rtoes 10.521321615523455
lowerback 12.80993814545466 -0.23215276220980757 3.3597550185015996
upperback -0.04640081370260535 0.28055438743673605 2.828149242527555
thorax -7.763131135076938 0.11140906821496266 1.072749926766222
lowerneck -16.240527631224655 -3.0573116775593685 -3.2548831697125093
upperneck 18.883705566237843 -3.5625214901584425 2.688360012006129
head 8.621227113286611 -1.6737954665779557 1.0768408222232113
lclavicle -1.6725878335894852e-15 -3.590057683054235e-15
lhumerus -41.05193267121861 -5.6195321592522856 90.62060154469332
lradius 69.4264849826147
lwrist 19.585577154612594
lhand -29.512162255807777 11.409760018911667
lfingers 7.125019999999999
lthumb -3.2364489837526844 41.15129136269828
rclavicle -1.6756332621043176e-15 -3.592184217984297e-15
rhumerus -38.088284976331366 -5.581726146204764 -85.67815427132108
rradius 62.4425711996767
rwrist -1.6279333947956869
rhand -17.563989844145965 29.207188157646776
rfingers 7.125019999999999
rthumb 8.306561009176804 -0.9763961336666541
71
root -0.5218061865929637 17.861269394352153 38.46541397014076 0.186344875507853 0.7784435194663812 -5.138743068549011
lfemur -29.20132098992459 2.464719827899364 -13.747527578365435
ltibia 86.71853429193581
lfoot 0.486615569476607 -4.336735037709472
ltoes -6.297931285523613
rfemur -8.47971233385168 6.259922846821899 34.90366677413264
rtibia 26.287767479993082
rfoot -13.572182138517675 -6.03028793838528
rtoes 8.891863753853107
lowerback 13.005798730905838 0.16871560156546977 4.168388316213189
upperback -0.1360311749094795 0.8880422606142226 2.6336019002966085
thorax -7.984337177130291 0.3770140062341724 0.272815575113856
lowerneck -16.296852715031818 -3.168545841899188 -3.1966788522060208
upperneck 18.682909086214604 -3.6787350746092526 2.6772923026574995
head 8.574427808080308 -1.714030738625087 1.0721553116488198
lclavicle -1.673583391504314e-15 -3.590758757416749e-15
lhumerus -42.66126050384875 -4.808788733083269 90.48062676161139
lradius 68.26294973022506
lwrist 20.937327383594052
lhand -30.138190843954348 10.921571503171768
lfingers 7.125019999999999
lthumb -3.7353697319283974 40.87082779049991
rclavicle -1.6750173663385783e-15 -3.591748703275406e-15
rhumerus -36.35248307496016 -3.3152621840381995 -87.36049100402721
rradius 65.66679361911612
rwrist -4.204861821364638
rhand -17.63790379308649 28.746797274892867
rfingers 7.125019999999999
rthumb 7.980771025854334 -1.2946399382261902
72
root -0.5048484180612842 17.700606147492447 39.474498445298735 0.8103557207042369 -0.388961952872445 -5.50787325279811
lfemur -32.28593949855761 2.18224514816659 -13.01814526072216
ltibia 76.7989364299073
lfoot -1.0562651079373353 -1.4619542415729843
ltoes -5.495962773054174
rfemur -5.082579277805584 6.686464199338836 35.793333692839624
rtibia 25.31979787728051
rfoot -14.559012249148005 -5.710699777287493
rtoes 9.539861302095929
lowerback 13.035450989118395 0.6701154977585201 4.842811273551241
upperback -0.22117209726328646 1.7030943708241497 2.5256390559419155
thorax -7.978759342449301 0.7333944386398311 -0.5205561326836172
lowerneck -16.51517073818452 -3.2839772375924268 -3.148911548262978
upperneck 18.238189438075814 -3.8442272489157983 2.751351847156605
head 8.466817419169315 -1.7697892051322177 1.0938875120271352
lclavicle -1.6733214494367678e-15 -3.5905688521881066e-15
lhumerus -44.14260998346103 -4.0692568039962875 90.35439986044055
lradius 67.07909325350556
lwrist 20.353573212501793
lhand -30.716190226731708 10.672304289049409
lfingers 7.125019999999999
lthumb -4.33180730621551 40.624567296680866
rclavicle -1.6750885166167515e-15 -3.5917990191895494e-15
rhumerus -34.6732079476291 -1.5314966733774389 -88.54062171229151
rradius 68.54639298255707
rwrist -6.718664562883787
rhand -17.999211228929976 28.542745701962247
rfingers 7.125019999999999
rthumb 7.498615149088917 -1.0561927861922857
